Coordinates
version=1
nRows=21
nColumns=12
inDegrees=yes

Units are S.I. units (second, meters, Newtons, ...)
Angles are in degrees

endheader
time	SC_y	SC_z	SC_x	AC_y	AC_z	AC_x	GH_y	GH_z	GH_yy	EL_x	PS_y
       0.0               -16.7         0.2661          27.74          35.91         -2.679          3.688          31.79         -19.03         -86.31          122.9          67.55
   0.01983               -16.7         0.2691          27.74          35.91         -2.678          3.685           31.8         -19.02         -86.31          122.8          67.54
   0.03967               -16.7         0.2724          27.74          35.91         -2.677          3.683          31.81          -19.0         -86.32          122.8          67.54
    0.0595               -16.7         0.2759          27.74          35.91         -2.676           3.68          31.82         -18.99         -86.33          122.8          67.53
   0.07933               -16.7         0.2796          27.74          35.91         -2.675          3.677          31.83         -18.97         -86.34          122.8          67.52
   0.09917               -16.7         0.2835          27.74          35.91         -2.674          3.673          31.84         -18.96         -86.35          122.8          67.52
     0.119               -16.7         0.2878          27.74          35.91         -2.673           3.67          31.85         -18.94         -86.36          122.8          67.51
    0.1388              -16.69         0.2923          27.73          35.91         -2.671          3.666          31.87         -18.92         -86.37          122.7           67.5
    0.1587              -16.69         0.2971          27.73          35.92          -2.67          3.662          31.88          -18.9         -86.38          122.7           67.5
    0.1785              -16.69         0.3023          27.73          35.92         -2.668          3.658           31.9         -18.87          -86.4          122.7          67.49
    0.1983              -16.69         0.3078          27.73          35.92         -2.666          3.654          31.91         -18.85         -86.41          122.7          67.48
    0.2182              -16.69         0.3138          27.73          35.92         -2.665          3.649          31.93         -18.83         -86.43          122.6          67.47
     0.238              -16.69         0.3203          27.73          35.92         -2.663          3.644          31.95          -18.8         -86.44          122.6          67.46
    0.2578              -16.69         0.3272          27.73          35.92         -2.661          3.638          31.97         -18.77         -86.46          122.6          67.45
    0.2777              -16.69         0.3348          27.73          35.93         -2.658          3.632          31.99         -18.74         -86.48          122.5          67.43
    0.2975              -16.69          0.343          27.73          35.93         -2.656          3.625          32.02          -18.7          -86.5          122.5          67.42
    0.3173              -16.69         0.3518          27.72          35.93         -2.653          3.618          32.04         -18.66         -86.52          122.4          67.41
    0.3372              -16.68         0.3615          27.72          35.93          -2.65           3.61          32.07         -18.62         -86.54          122.4          67.39
     0.357              -16.68         0.3721          27.72          35.94         -2.647          3.602           32.1         -18.58         -86.57          122.3          67.37
    0.3768              -16.68         0.3837          27.72          35.94         -2.643          3.592          32.13         -18.53          -86.6          122.3          67.35
    0.3967              -16.68         0.3964          27.72          35.94         -2.639          3.582          32.17         -18.47         -86.63          122.2          67.33
